<!DOCTYPE svg PUBLIC "-//W3C//DTD SVG 1.1//EN" "http://www.w3.org/Graphics/SVG/1.1/DTD/svg11.dtd">
<!-- Uploaded to: SVG Repo, www.svgrepo.com, Transformed by: SVG Repo Mixer Tools -->
<svg fill="#000000" version="1.1" id="Capa_1" xmlns="http://www.w3.org/2000/svg" xmlns:xlink="http://www.w3.org/1999/xlink" width="64px" height="64px" viewBox="0 0 56.48 56.48" xml:space="preserve">
<g id="SVGRepo_bgCarrier" stroke-width="0"/>
<g id="SVGRepo_tracerCarrier" stroke-linecap="round" stroke-linejoin="round"/>
<g id="SVGRepo_iconCarrier"> <g> <path d="M55.026,9.939H1.454C0.65,9.939,0,10.59,0,11.393v33.695c0,0.803,0.65,1.454,1.454,1.454h53.572 c0.804,0,1.454-0.651,1.454-1.454V11.393C56.48,10.59,55.83,9.939,55.026,9.939z M41.512,35.948H39.34l1.721-3.261l-3.661-6.871 c0.165,0.396,0.259,0.869,0.259,1.434v4.223c0,0.488,0.07,1.252,0.07,1.252h-1.807c0,0-0.048-0.615-0.048-1.24 c0,0-0.917,1.572-3.761,1.572c-2.087,0-3.632-1.006-3.632-2.854c0-0.105,0.006-0.209,0.017-0.309 c-0.539,1.902-2.164,3.138-4.36,3.138c-2.575,0-3.522-1.481-3.522-1.481c0,0.562-0.069,1.174-0.069,1.174H18.63 c0,0,0.043-0.854,0.043-1.463v-2.285h-7.679c0,1.615,1.228,2.769,2.934,2.769c2.096,0,2.526-1.471,2.526-1.471h2.01 c0,0-0.266,2.731-4.414,2.731c-3.523,0-5.044-1.731-5.044-4.482c0-3.473,2.261-4.624,4.974-4.624c3.626,0,4.664,2.395,4.692,3.994 v-7.357h1.961v4.834c0,0,0.832-1.445,3.507-1.445c2.857,0,4.549,2.018,4.549,4.527c0,0.312-0.026,0.612-0.073,0.899 c0.457-1.305,2.058-1.95,4.697-1.95h2.382v-0.42c0-1.181-1.04-1.795-2.382-1.795c-2.065,0-2.171,1.305-2.171,1.305H29.11 c0-0.357,0.262-2.592,4.343-2.592c1.395,0,2.921,0.293,3.694,1.447l-0.585-1.097h2.287l3.279,6.572l3.273-6.572h2.07L41.512,35.948 z M26.659,28.451c0,1.967-1.353,3.253-2.999,3.253c-1.966,0-3.026-1.535-3.026-3.235c0-1.585,0.952-3.219,3.013-3.219 C25.489,25.25,26.659,26.617,26.659,28.451z M16.643,27.68h-5.604c0-1.583,1.445-2.487,2.872-2.487 C15.535,25.194,16.643,26.189,16.643,27.68z M35.697,28.661v0.56c0,0.731-0.451,2.549-3.107,2.549 c-1.453,0-2.078-0.727-2.078-1.567C30.512,28.671,32.612,28.661,35.697,28.661z"/> </g> </g>
</svg>